<svg width="124" height="94" viewBox="0 0 124 94" fill="none" xmlns="http://www.w3.org/2000/svg">
<g clip-path="url(#clip0_361_217)">
<path d="M0 85.2013C0 85.3046 0.0833302 85.3875 0.1871 85.3875H123.813C123.917 85.3875 124 85.3046 124 85.2013C124 85.0981 123.917 85.0151 123.813 85.0151H0.1871C0.0833302 85.0151 0 85.0981 0 85.2013Z" fill="#3F3D56"/>
<path d="M67.9314 32.526L69.2081 24.5925L60.5968 21.1021L59.3217 33.1597L67.9314 32.526Z" fill="#F7C9C9"/>
<path d="M65.7554 27.1425C70.605 27.1425 74.5365 23.2305 74.5365 18.4047C74.5365 13.579 70.605 9.66699 65.7554 9.66699C60.9057 9.66699 56.9742 13.579 56.9742 18.4047C56.9742 23.2305 60.9057 27.1425 65.7554 27.1425Z" fill="#F7C9C9"/>
<path d="M65.0557 6.65858C65.3104 6.80564 65.65 6.58348 65.7318 6.30187C65.8135 6.02026 65.7176 5.72144 65.6249 5.44453C65.4676 4.97987 65.3088 4.51365 65.1516 4.04899C64.8151 3.05866 64.4582 2.03391 63.7318 1.27982C62.6328 0.142428 60.8876 -0.147005 59.3169 0.062638C57.2997 0.331732 55.3076 1.41906 54.3706 3.21667C53.4319 5.01429 53.8313 7.52375 55.5278 8.6455C53.1112 11.4006 52.2684 14.4733 52.4021 18.1279C52.5357 21.7826 56.5371 25.1463 59.1487 27.7215C59.732 27.3695 60.2618 25.722 59.9411 25.1228C59.6204 24.5236 60.0795 23.8306 59.6833 23.2799C59.287 22.7291 58.9537 23.6068 59.3562 23.0577C59.6094 22.7119 58.6204 21.9156 58.9977 21.7091C60.8184 20.7078 61.4238 18.4487 62.5684 16.7199C63.9472 14.6344 66.3088 13.2217 68.8071 12.987C70.1829 12.8571 71.6372 13.0918 72.7645 13.8866C73.8918 14.6813 74.6229 16.1019 74.3619 17.4536C75.0396 16.7684 75.3761 15.7655 75.2487 14.8143C75.1213 13.8631 74.5333 12.9807 73.6984 12.4973C74.2047 10.8295 73.7708 8.91146 72.5947 7.62075C71.4187 6.33003 66.6453 6.55063 64.9283 6.89013" fill="#2F2E41"/>
<path d="M64.7884 13.0356C62.5134 13.2797 60.8703 15.2416 59.4836 17.0517C58.6849 18.0952 57.8469 19.2483 57.8673 20.5609C57.8877 21.8876 58.7792 23.025 59.2053 24.2829C59.9018 26.3386 59.2226 28.7824 57.5654 30.1904C59.2037 30.5002 60.9741 29.2783 61.2571 27.6434C61.5857 25.741 60.1361 23.9042 60.3075 21.9799C60.4584 20.2855 61.8011 18.9808 62.941 17.7135C64.0809 16.4463 65.1532 14.7644 64.6281 13.1452" fill="#2F2E41"/>
<path d="M65.2239 93.0612C65.2239 93.0612 46.1995 94.9386 44.7845 92.7483C43.3694 90.558 64.0903 88.3677 64.0903 88.3677L65.2239 93.0612Z" fill="#F7C9C9"/>
<path d="M53.0939 57.9634L52.7008 60.0395C53.7715 61.6118 53.8737 63.2733 53.2511 65.0036L74.9484 65.1601C74.7157 62.8212 74.4594 60.3148 75.3525 58.0166L53.0939 57.9634Z" fill="#F7C9C9"/>
<path d="M88.6334 73.4001L80.7643 67.1359C79.7187 66.3036 79.041 65.066 78.9074 63.7409L77.6952 51.8084L84.9198 49.4116L86.6618 61.2267L91.0029 71.044L88.635 73.4001H88.6334Z" fill="#F7C9C9"/>
<path d="M58.5182 31.7579L69.0524 31.2886L80.2155 36.5797L75.6559 58.198L52.5436 59.919L49.399 35.9821L58.5182 31.7579Z" fill="#6481F7"/>
<path d="M75.3525 63.1792C76.9358 65.2553 77.5993 70.2539 78.2722 75.2259C78.2722 75.2259 49.028 75.0694 48.8708 75.0694C48.7136 75.0694 53.3408 64.5873 53.3408 64.5873L75.3525 63.1792Z" fill="#2F2E41"/>
<path d="M76.3084 73.8993L78.2738 75.226C78.2738 75.226 106.103 73.3486 103.745 82.1098C101.386 90.8711 93.9965 92.2791 93.9965 92.2791L64.1234 94.0001L63.8089 89.1501C63.8089 89.1501 35.0364 95.5646 32.3636 82.4227C29.6907 69.2809 48.8724 75.0696 48.8724 75.0696L76.3084 73.8993Z" fill="#2F2E41"/>
<path d="M64.5652 84.2999C64.5652 84.2999 65.224 80.858 69.9408 82.2661C74.6576 83.6741 77.3304 85.5515 77.3304 85.5515L66.0101 88.3676L64.5652 84.2999Z" fill="#F7C9C9"/>
<path d="M76.3635 36.2168C76.3635 36.2168 81.7092 34.3394 83.7531 40.4409C85.7971 46.5425 85.3254 51.5489 85.3254 51.5489L77.4641 54.0521L76.3635 36.2168Z" fill="#6481F7"/>
<path d="M39.7061 74.3532L37.9907 71.3462L41.6966 62.1673L43.4386 50.3506L50.6632 52.7474L49.4353 64.8254C49.3095 66.0598 48.679 67.2112 47.7058 67.9857L39.7061 74.3548V74.3532Z" fill="#F7C9C9"/>
<path d="M51.9933 36.2168C51.9933 36.2168 46.6476 34.3394 44.6037 40.4409C42.5597 46.5425 43.0314 51.5489 43.0314 51.5489L50.8927 54.0521L51.9933 36.2168Z" fill="#6481F7"/>
<path d="M90.9069 74.7818C92.9909 74.7818 94.6804 72.2952 94.6804 69.2278C94.6804 66.1604 92.9909 63.6738 90.9069 63.6738C88.8229 63.6738 87.1335 66.1604 87.1335 69.2278C87.1335 72.2952 88.8229 74.7818 90.9069 74.7818Z" fill="#F7C9C9"/>
<path d="M37.9215 75.7203C40.0055 75.7203 41.695 73.2337 41.695 70.1663C41.695 67.0989 40.0055 64.6123 37.9215 64.6123C35.8375 64.6123 34.1481 67.0989 34.1481 70.1663C34.1481 73.2337 35.8375 75.7203 37.9215 75.7203Z" fill="#F7C9C9"/>
<path d="M52.3314 79.4502L66.0101 83.3615L68.6829 88.055L63.5715 89.1501" fill="#2F2E41"/>
</g>
<defs>
<clipPath id="clip0_361_217">
<rect width="124" height="94" fill="white"/>
</clipPath>
</defs>
</svg>
