<svg width="109" height="86" viewBox="0 0 109 86" fill="none" xmlns="http://www.w3.org/2000/svg">
<g clip-path="url(#clip0_361_188)">
<path d="M66.9372 76.3832L64.0282 79.0677L66.34 75.1792C64.5186 71.8683 61.5397 69.0068 61.5397 69.0068C61.5397 69.0068 55.3596 74.9422 55.3596 79.6077C55.3596 84.2733 58.1265 85.9024 61.5397 85.9024C64.9529 85.9024 67.7198 84.2733 67.7198 79.6077C67.7198 78.5693 67.4132 77.468 66.9372 76.3832Z" fill="#F2F2F2"/>
<path d="M63.28 79.213V79.4429C63.2664 82.1161 62.8166 84.2018 61.9341 85.6704C61.9216 85.692 61.908 85.7125 61.8955 85.7342L61.7967 85.6738L61.7024 85.6146C62.6815 84.0287 63.0279 81.7871 63.0403 79.4554C63.0415 79.3803 63.0426 79.304 63.0415 79.2278C63.0381 78.2407 62.9779 77.2422 62.8813 76.2723C62.8745 76.1971 62.8666 76.1208 62.8586 76.0446C62.7246 74.7649 62.5315 73.5422 62.3339 72.48C62.3203 72.4048 62.3055 72.3297 62.2908 72.2557C61.9489 70.4592 61.6002 69.1579 61.5207 68.8699C61.5116 68.8346 61.506 68.8152 61.5048 68.8107L61.6127 68.7799L61.6139 68.7788L61.7229 68.748C61.724 68.7526 61.7433 68.8175 61.7751 68.9382C61.8966 69.389 62.2124 70.6129 62.5224 72.2272C62.5361 72.3001 62.5508 72.3752 62.5645 72.4504C62.7257 73.3122 62.8836 74.2754 63.0085 75.2863C63.0403 75.5402 63.0687 75.7907 63.0937 76.0377C63.1028 76.114 63.1108 76.1903 63.1176 76.2654C63.2221 77.314 63.2762 78.2965 63.28 79.213Z" fill="white"/>
<path d="M62.5225 72.2275C62.4464 72.2377 62.3691 72.2479 62.2908 72.2559C62.0779 72.2779 61.8641 72.2889 61.6502 72.2889C60.7384 72.2901 59.838 72.0863 59.0153 71.6924C58.9676 71.7527 58.9199 71.8131 58.871 71.8745C59.7365 72.298 60.6871 72.5177 61.6502 72.5166C61.8786 72.5166 62.1068 72.5044 62.3339 72.4802C62.4111 72.4722 62.4884 72.462 62.5645 72.4506C63.1926 72.3603 63.8034 72.1749 64.376 71.9007C64.3271 71.8381 64.2795 71.7766 64.2329 71.7163C63.691 71.9702 63.1146 72.1424 62.5225 72.2275Z" fill="white"/>
<path d="M63.0937 76.0374C63.0154 76.042 62.937 76.0443 62.8586 76.0443C62.8348 76.0454 62.8098 76.0454 62.7859 76.0454C61.798 76.0454 60.8247 75.806 59.949 75.3474C59.0733 74.8889 58.3212 74.2249 57.7569 73.4121C57.7114 73.4793 57.666 73.5464 57.6217 73.6148C58.2099 74.4372 58.9852 75.1073 59.8833 75.5696C60.7813 76.0319 61.7764 76.2731 62.7859 76.2731C62.8177 76.2731 62.8495 76.2731 62.8813 76.272C62.9608 76.2708 63.0392 76.2685 63.1176 76.2651C64.3302 76.2029 65.4993 75.7918 66.4851 75.0811C66.4487 75.0139 66.4124 74.9468 66.3749 74.8796C65.4169 75.5774 64.2765 75.9798 63.0937 76.0374Z" fill="white"/>
<path d="M63.28 79.2132C63.2005 79.22 63.121 79.2246 63.0415 79.228C62.9563 79.2314 62.8711 79.2337 62.786 79.2337C61.4584 79.2322 60.1671 78.7996 59.1053 78.0009C58.0435 77.2021 57.2684 76.08 56.896 74.8027C56.8449 74.895 56.7938 74.986 56.7449 75.0783C57.1645 76.3526 57.9741 77.462 59.0585 78.2488C60.143 79.0357 61.4472 79.46 62.786 79.4614C62.8711 79.4614 62.9563 79.4603 63.0404 79.4557C63.121 79.4534 63.2005 79.4489 63.28 79.4432C64.8858 79.3173 66.3839 78.5843 67.4709 77.3928C67.4471 77.3085 67.4198 77.2254 67.3925 77.1412C66.3426 78.3416 64.8675 79.0849 63.28 79.2132Z" fill="white"/>
<path d="M14.9088 30.3475C23.1427 30.3475 29.8176 23.6565 29.8176 15.4027C29.8176 7.14899 23.1427 0.458008 14.9088 0.458008C6.6749 0.458008 0 7.14899 0 15.4027C0 23.6565 6.6749 30.3475 14.9088 30.3475Z" fill="#5F5A5A"/>
<path d="M14.9088 27.8561C21.7704 27.8561 27.3328 22.2803 27.3328 15.4022C27.3328 8.52406 21.7704 2.94824 14.9088 2.94824C8.04722 2.94824 2.4848 8.52406 2.4848 15.4022C2.4848 22.2803 8.04722 27.8561 14.9088 27.8561Z" fill="#A7DA9D"/>
<path d="M54.5 30.3475C62.7339 30.3475 69.4088 23.6565 69.4088 15.4027C69.4088 7.14899 62.7339 0.458008 54.5 0.458008C46.2661 0.458008 39.5912 7.14899 39.5912 15.4027C39.5912 23.6565 46.2661 30.3475 54.5 30.3475Z" fill="#5F5A5A"/>
<path d="M54.5 27.8561C61.3616 27.8561 66.924 22.2803 66.924 15.4022C66.924 8.52406 61.3616 2.94824 54.5 2.94824C47.6384 2.94824 42.076 8.52406 42.076 15.4022C42.076 22.2803 47.6384 27.8561 54.5 27.8561Z" fill="white"/>
<path d="M94.0912 30.3475C102.325 30.3475 109 23.6565 109 15.4027C109 7.14899 102.325 0.458008 94.0912 0.458008C85.8573 0.458008 79.1824 7.14899 79.1824 15.4027C79.1824 23.6565 85.8573 30.3475 94.0912 30.3475Z" fill="#5F5A5A"/>
<path d="M94.0912 27.8561C100.953 27.8561 106.515 22.2803 106.515 15.4022C106.515 8.52406 100.953 2.94824 94.0912 2.94824C87.2296 2.94824 81.6672 8.52406 81.6672 15.4022C81.6672 22.2803 87.2296 27.8561 94.0912 27.8561Z" fill="white"/>
<path d="M13.8531 19.9057C13.8309 19.9057 13.8086 19.9051 13.7864 19.904C13.5899 19.8945 13.3978 19.8425 13.2232 19.7516C13.0486 19.6607 12.8958 19.533 12.7751 19.3773L10.8693 16.9211C10.6474 16.6344 10.5479 16.2712 10.5928 15.9112C10.6377 15.5512 10.8232 15.2237 11.1087 15.0005L11.1773 14.947C11.4633 14.7246 11.8256 14.625 12.1848 14.67C12.544 14.715 12.8707 14.9009 13.0933 15.1871C13.2007 15.3255 13.3367 15.439 13.492 15.5199C13.6472 15.6008 13.8181 15.6471 13.9928 15.6556C14.1676 15.6642 14.3421 15.6347 14.5045 15.5694C14.6668 15.504 14.8132 15.4043 14.9335 15.277L18.8032 11.1823C18.9265 11.0518 19.0743 10.9469 19.238 10.8737C19.4018 10.8004 19.5783 10.7602 19.7575 10.7554C19.9368 10.7505 20.1152 10.7811 20.2827 10.8454C20.4501 10.9097 20.6033 11.0064 20.7335 11.13L20.7966 11.19C21.0595 11.4397 21.2127 11.7837 21.2224 12.1466C21.2322 12.5094 21.0978 12.8613 20.8487 13.1248L14.844 19.4783C14.7165 19.6133 14.5628 19.7208 14.3925 19.7943C14.2221 19.8678 14.0386 19.9057 13.8531 19.9057Z" fill="white"/>
<path d="M47.9566 12.3763H38.1436V3.82152C38.1537 3.29182 38.3729 2.78775 38.7531 2.41981C39.1334 2.05186 39.6437 1.85007 40.1721 1.85866H43.434C45.9278 1.85866 47.9566 3.82174 47.9566 6.23467V12.3763Z" fill="#2F2E41"/>
<path d="M51.5896 83.9626L49.7268 83.9625L48.8405 76.7598L51.5899 76.7599L51.5896 83.9626Z" fill="#FFB6B6"/>
<path d="M52.0647 85.7725L46.058 85.7723V85.6961C46.058 85.0746 46.3044 84.4785 46.7428 84.039C47.1813 83.5995 47.7759 83.3526 48.396 83.3525L52.0649 83.3527L52.0647 85.7725Z" fill="#2F2E41"/>
<path d="M34.4191 83.9626L32.5561 83.9625L31.6699 76.7598L34.4194 76.7599L34.4191 83.9626Z" fill="#FFB6B6"/>
<path d="M34.8942 85.7725L28.8874 85.7723V85.6961C28.8874 85.0746 29.1338 84.4785 29.5722 84.039C30.0107 83.5995 30.6053 83.3526 31.2254 83.3525L34.8943 83.3527L34.8942 85.7725Z" fill="#2F2E41"/>
<path d="M36.6684 26.0967L35.4528 33.8649L47.001 34.0172L45.4815 26.5537L36.6684 26.0967Z" fill="#FFB6B6"/>
<path d="M35.7879 31.9688L32.1098 41.786L31.6539 82.4705H34.7689L42.2146 49.7827L49.0524 81.6172H52.0914L49.9641 45.8225C49.9641 45.8225 50.5914 38.6381 47.3809 34.3986L46.5995 32.1355L35.7879 31.9688Z" fill="#2F2E41"/>
<path d="M51.5648 39.6222C51.2433 39.5343 50.9449 39.3769 50.6906 39.1609C50.4363 38.945 50.2324 38.6758 50.0931 38.3722C49.9539 38.0687 49.8827 37.7383 49.8846 37.4042C49.8865 37.0702 49.9615 36.7406 50.1042 36.4387L45.1914 20.3831L48.805 19.665L53.2983 35.4029C53.7883 35.6769 54.161 36.1215 54.3459 36.6526C54.5307 37.1837 54.5148 37.7642 54.3011 38.2843C54.0874 38.8044 53.6909 39.2278 53.1866 39.4744C52.6822 39.721 52.1052 39.7736 51.5648 39.6222Z" fill="#FFB6B6"/>
<path d="M45.0633 30.3871L37.1027 30.2331C36.8752 30.2282 36.6555 30.1487 36.4773 30.0068C36.2992 29.8648 36.1723 29.6683 36.1162 29.4472C35.6895 27.7535 34.7506 23.3395 35.2486 18.9431C35.3469 18.0914 35.6146 17.2682 36.0358 16.522C36.4571 15.7759 37.0234 15.122 37.7012 14.5991C38.379 14.0762 39.1545 13.6949 39.9819 13.4777C40.8093 13.2605 41.6717 13.2119 42.5182 13.3347C43.4111 13.4628 44.267 13.7788 45.0295 14.2618C45.7921 14.7448 46.4441 15.384 46.9429 16.1374C47.4417 16.8908 47.7759 17.7414 47.9237 18.6334C48.0714 19.5254 48.0294 20.4386 47.8003 21.3132C46.7982 25.1277 46.2322 27.8566 46.118 29.4244C46.1011 29.6511 46.0106 29.866 45.8604 30.0362C45.7102 30.2065 45.5086 30.3229 45.2862 30.3675C45.2201 30.3806 45.1528 30.3873 45.0854 30.3873C45.078 30.3873 45.0706 30.3873 45.0633 30.3871Z" fill="#36662C"/>
<path d="M20.8824 16.2847C20.9303 16.3922 20.9695 16.5033 20.9999 16.617L30.9643 20.0111L32.8897 18.325L35.808 20.9052L32.6888 24.2222C32.4368 24.4901 32.1049 24.6689 31.7429 24.7317C31.381 24.7945 31.0084 24.7379 30.6813 24.5704L20.0188 19.1109C19.6332 19.348 19.1847 19.4618 18.7331 19.4371C18.2814 19.4125 17.8479 19.2506 17.4902 18.973C17.1326 18.6954 16.8677 18.3152 16.7309 17.883C16.5941 17.4508 16.5917 16.9871 16.7242 16.5535C16.8567 16.12 17.1177 15.7371 17.4726 15.4559C17.8274 15.1747 18.2593 15.0084 18.7107 14.9792C19.1621 14.9501 19.6117 15.0593 19.9996 15.2925C20.3876 15.5257 20.6955 15.8718 20.8824 16.2847Z" fill="#FFB6B6"/>
<path d="M30.9849 19.4692C30.9857 19.3317 31.0161 19.1959 31.074 19.0712C31.1319 18.9465 31.2159 18.8358 31.3204 18.7466L34.9689 15.6312C35.4306 15.1009 36.0833 14.7757 36.7839 14.7271C37.4844 14.6784 38.1756 14.9103 38.7059 15.3718C39.2361 15.8333 39.5621 16.4868 39.6124 17.1889C39.6626 17.891 39.433 18.5844 38.9739 19.1171L36.3757 23.1727C36.3016 23.2884 36.2034 23.3868 36.0879 23.4611C35.9724 23.5353 35.8423 23.5838 35.7064 23.6031C35.5706 23.6224 35.4322 23.6122 35.3006 23.5731C35.169 23.5339 35.0475 23.4668 34.9441 23.3763L31.3117 20.196C31.2082 20.1056 31.1255 19.9938 31.0691 19.8684C31.0128 19.743 30.984 19.6068 30.9849 19.4692Z" fill="#36662C"/>
<path d="M44.9713 24.4493C44.8498 24.3853 44.7436 24.2958 44.6598 24.1868C44.576 24.0779 44.5167 23.9521 44.4858 23.8181L43.4071 19.137C43.1501 18.482 43.1628 17.7516 43.4424 17.1059C43.7219 16.4603 44.2454 15.9521 44.8982 15.6928C45.551 15.4335 46.2797 15.4443 46.9245 15.7228C47.5694 16.0013 48.0777 16.5248 48.3381 17.1784L50.7331 21.3578C50.8014 21.4771 50.8433 21.6098 50.8559 21.7467C50.8685 21.8837 50.8515 22.0218 50.8061 22.1516C50.7606 22.2814 50.6878 22.3998 50.5926 22.4989C50.4974 22.5979 50.3819 22.6752 50.2542 22.7255L45.7653 24.4933C45.6376 24.5436 45.5005 24.5658 45.3635 24.5582C45.2265 24.5506 45.0927 24.5135 44.9713 24.4493Z" fill="#36662C"/>
<path d="M48.833 2.69441C49.2016 1.82946 48.5677 0.728931 47.4173 0.236297C46.2668 -0.256337 45.0353 0.0454793 44.6667 0.910429C44.2981 1.77538 44.932 2.87592 46.0825 3.36856C47.233 3.86119 48.4644 3.55936 48.833 2.69441Z" fill="#2F2E41"/>
<path d="M45.264 9.12345C46.4948 6.86654 45.6673 4.0368 43.4158 2.80306C41.1644 1.56932 38.3414 2.39877 37.1107 4.65568C35.8799 6.9126 36.7073 9.74233 38.9588 10.9761C41.2103 12.2098 44.0332 11.3804 45.264 9.12345Z" fill="#FFB6B6"/>
<path d="M43.736 1.55579H38.4218C38.0322 1.55074 37.6551 1.69352 37.3661 1.95551C37.0771 2.21749 36.8976 2.5793 36.8636 2.96838C36.8499 3.17515 36.8786 3.38254 36.9481 3.5777C37.0176 3.77287 37.1263 3.95165 37.2676 4.10298C37.4088 4.2543 37.5795 4.37494 37.7692 4.45741C37.9588 4.53989 38.1633 4.58245 38.3701 4.58246C38.7705 4.58246 39.1545 4.7419 39.4376 5.0257C39.7207 5.30951 39.8798 5.69443 39.8798 6.09579V12.3005H48.1831V6.01357C48.1831 5.42816 48.0681 4.84849 47.8446 4.30765C47.6211 3.76681 47.2935 3.27539 46.8806 2.86145C46.4676 2.4475 45.9774 2.11914 45.4378 1.89512C44.8983 1.6711 44.32 1.55579 43.736 1.55579Z" fill="#2F2E41"/>
<path d="M69.9328 85.9999H12.4134C12.3733 85.9999 12.3349 85.984 12.3066 85.9556C12.2783 85.9272 12.2624 85.8887 12.2624 85.8486C12.2624 85.8085 12.2783 85.77 12.3066 85.7416C12.3349 85.7132 12.3733 85.6973 12.4134 85.6973H69.9328C69.9728 85.6973 70.0112 85.7132 70.0395 85.7416C70.0678 85.77 70.0837 85.8085 70.0837 85.8486C70.0837 85.8887 70.0678 85.9272 70.0395 85.9556C70.0112 85.984 69.9728 85.9999 69.9328 85.9999Z" fill="#CACACA"/>
</g>
<defs>
<clipPath id="clip0_361_188">
<rect width="109" height="86" fill="white"/>
</clipPath>
</defs>
</svg>
