<svg width="28" height="28" viewBox="0 0 28 28" fill="none" xmlns="http://www.w3.org/2000/svg">
<path fill-rule="evenodd" clip-rule="evenodd" d="M14.0001 3.20801C11.2617 3.20801 9.04175 5.42793 9.04175 8.16634C9.04175 10.9048 11.2617 13.1247 14.0001 13.1247C16.7385 13.1247 18.9584 10.9048 18.9584 8.16634C18.9584 5.42793 16.7385 3.20801 14.0001 3.20801ZM7.29175 8.16634C7.29175 4.46143 10.2952 1.45801 14.0001 1.45801C17.705 1.45801 20.7084 4.46143 20.7084 8.16634C20.7084 11.8713 17.705 14.8747 14.0001 14.8747C10.2952 14.8747 7.29175 11.8713 7.29175 8.16634Z" fill="#5C5D67"/>
<path fill-rule="evenodd" clip-rule="evenodd" d="M19.9536 24.0371C21.2485 23.3233 21.5834 22.5837 21.5834 22.1667C21.5834 21.7496 21.2485 21.01 19.9536 20.2962C18.6923 19.601 16.6965 19.0556 14.0001 19.0556C11.3036 19.0556 9.30782 19.601 8.04657 20.2962C6.75163 21.01 6.41675 21.7496 6.41675 22.1667C6.41675 22.5837 6.75163 23.3233 8.04657 24.0371C9.30782 24.7324 11.3036 25.2778 14.0001 25.2778C16.6965 25.2778 18.6923 24.7324 19.9536 24.0371ZM14.0001 26.8333C19.8911 26.8333 23.3334 24.4576 23.3334 22.1667C23.3334 19.8757 19.8911 17.5 14.0001 17.5C8.10904 17.5 4.66675 19.8757 4.66675 22.1667C4.66675 24.4576 8.10904 26.8333 14.0001 26.8333Z" fill="#5C5D67"/>
</svg>
