<svg width="30" height="30" viewBox="0 0 30 30" fill="none" xmlns="http://www.w3.org/2000/svg">
<path fill-rule="evenodd" clip-rule="evenodd" d="M15 3.4375C12.066 3.4375 9.6875 5.81599 9.6875 8.75C9.6875 11.684 12.066 14.0625 15 14.0625C17.934 14.0625 20.3125 11.684 20.3125 8.75C20.3125 5.81599 17.934 3.4375 15 3.4375ZM7.8125 8.75C7.8125 4.78045 11.0305 1.5625 15 1.5625C18.9695 1.5625 22.1875 4.78045 22.1875 8.75C22.1875 12.7195 18.9695 15.9375 15 15.9375C11.0305 15.9375 7.8125 12.7195 7.8125 8.75Z" fill="#CB6CE6"/>
<path fill-rule="evenodd" clip-rule="evenodd" d="M21.3788 25.7541C22.7662 24.9893 23.125 24.1969 23.125 23.75C23.125 23.3031 22.7662 22.5107 21.3788 21.7459C20.0274 21.001 17.889 20.4167 15 20.4167C12.111 20.4167 9.97258 21.001 8.62124 21.7459C7.2338 22.5107 6.875 23.3031 6.875 23.75C6.875 24.1969 7.2338 24.9893 8.62124 25.7541C9.97258 26.499 12.111 27.0833 15 27.0833C17.889 27.0833 20.0274 26.499 21.3788 25.7541ZM15 28.75C21.3118 28.75 25 26.2046 25 23.75C25 21.2954 21.3118 18.75 15 18.75C8.68817 18.75 5 21.2954 5 23.75C5 26.2046 8.68817 28.75 15 28.75Z" fill="#CB6CE6"/>
</svg>
