<?xml version="1.0" encoding="UTF-8"?>
<svg version="1.1" xmlns="http://www.w3.org/2000/svg" width="25" height="25">
<path d="M0 0 C4.78861807 0.95772361 6.5270236 1.78648397 10.3125 4.5625 C11.19550781 5.20316406 12.07851563 5.84382812 12.98828125 6.50390625 C13.65214844 6.99761719 14.31601562 7.49132812 15 8 C14.8359375 9.765625 14.8359375 9.765625 14 12 C11.6015625 13.921875 11.6015625 13.921875 8.625 15.75 C7.15933594 16.67039062 7.15933594 16.67039062 5.6640625 17.609375 C3 19 3 19 0 19 C0 12.73 0 6.46 0 0 Z M1 2 C1 6.95 1 11.9 1 17 C4.54997152 15.58001139 7.18729934 14.3878411 10.3125 12.375 C11.00988281 11.92898438 11.70726562 11.48296875 12.42578125 11.0234375 C12.94527344 10.68570312 13.46476562 10.34796875 14 10 C8.11590683 4.52911327 8.11590683 4.52911327 1 2 Z " fill="#5F5F5F" transform="translate(5,3)"/>
<path d="M0 0 C1.48754006 0.73325207 2.96486192 1.48726078 4.4375 2.25 C5.67306641 2.87648438 5.67306641 2.87648438 6.93359375 3.515625 C9 5 9 5 9.78515625 7.171875 C9.85605469 7.77515625 9.92695313 8.3784375 10 9 C9.01 9.66 8.02 10.32 7 11 C7 9.68 7 8.36 7 7 C5.25522367 5.42481549 5.25522367 5.42481549 3 4.25 C2.2575 3.82203125 1.515 3.3940625 0.75 2.953125 C0.1725 2.63859375 -0.405 2.3240625 -1 2 C-0.67 1.34 -0.34 0.68 0 0 Z " fill="#565656" transform="translate(10,5)"/>
</svg>
