<?xml version="1.0" encoding="UTF-8"?>
<svg version="1.1" xmlns="http://www.w3.org/2000/svg" width="25" height="25">
<path d="M0 0 C4.78861807 0.95772361 6.5270236 1.78648397 10.3125 4.5625 C11.19550781 5.20316406 12.07851563 5.84382812 12.98828125 6.50390625 C13.65214844 6.99761719 14.31601562 7.49132812 15 8 C14.8359375 9.765625 14.8359375 9.765625 14 12 C11.6015625 13.921875 11.6015625 13.921875 8.625 15.75 C7.15933594 16.67039062 7.15933594 16.67039062 5.6640625 17.609375 C3 19 3 19 0 19 C0 12.73 0 6.46 0 0 Z M1 2 C1 6.95 1 11.9 1 17 C4.54997152 15.58001139 7.18729934 14.3878411 10.3125 12.375 C11.00988281 11.92898438 11.70726562 11.48296875 12.42578125 11.0234375 C12.94527344 10.68570312 13.46476562 10.34796875 14 10 C8.11590683 4.52911327 8.11590683 4.52911327 1 2 Z " fill="#CD64E4" transform="translate(5,3)"/>
</svg>
